<?xml version="1.0" encoding="UTF-8" standalone="no"?>
<!-- Created with Inkscape (http://www.inkscape.org/) -->

<svg
   version="1.1"
   id="svg1"
   width="512"
   height="463.13846"
   viewBox="0 0 512.00001 463.13845"
   xmlns="http://www.w3.org/2000/svg"
   xmlns:svg="http://www.w3.org/2000/svg">
  <defs
     id="defs1" />
  <g
     id="g1"
     transform="translate(-186.34415,-167.26244)">
    <path
       style="fill:#000000;stroke-width:1.06597"
       d="m 537.25207,629.31992 c -3.64351,-0.52308 -10.83884,-2.43778 -15.98961,-4.25491 -5.15078,-1.81712 -12.48303,-4.87795 -16.29389,-6.80185 -3.81086,-1.92389 -11.24603,-6.34626 -16.5226,-9.82747 -5.27658,-3.48121 -13.29314,-9.27842 -17.81459,-12.88268 -4.52145,-3.60426 -11.53525,-9.67989 -15.58624,-13.50139 -4.05099,-3.82149 -7.68273,-6.94818 -8.07052,-6.94818 -0.38781,0 -5.60605,4.12637 -11.5961,9.16971 -5.99006,5.04333 -15.87893,12.5089 -21.97524,16.59014 -6.09633,4.08124 -14.73073,9.25336 -19.18754,11.4936 -4.45683,2.24025 -12.32225,5.56183 -17.47873,7.3813 -5.15648,1.81947 -13.61705,3.87286 -18.80125,4.56309 -7.2498,0.96524 -11.23764,0.96298 -17.27395,-0.01 -4.31646,-0.6956 -10.72624,-2.66468 -14.24395,-4.37572 -3.51772,-1.71104 -8.40472,-4.83063 -10.86,-6.93243 -2.45529,-2.10181 -6.37732,-6.74948 -8.71564,-10.32818 -2.33832,-3.57869 -5.22671,-9.20316 -6.41864,-12.49882 -1.19193,-3.29567 -2.65637,-7.91088 -3.2543,-10.25602 -0.94921,-3.72287 -1.72526,-4.52501 -6.1162,-6.32176 -2.76599,-1.13182 -6.89062,-3.73968 -9.16587,-5.79522 -2.27525,-2.05555 -5.40941,-6.16623 -6.96482,-9.13486 -2.37372,-4.53046 -2.82836,-6.76744 -2.83017,-13.92532 -0.002,-6.73231 0.49027,-9.45571 2.33667,-12.93501 1.28634,-2.42397 3.9134,-5.98182 5.83791,-7.90632 1.92451,-1.92451 6.05403,-4.6688 9.17673,-6.09841 3.80505,-1.742 7.67572,-2.61813 11.73578,-2.65638 3.33198,-0.0313 7.97529,0.56822 10.31848,1.33245 2.34318,0.76424 6.28534,2.77289 8.76038,4.46368 2.47503,1.69079 5.87668,5.09919 7.55924,7.57422 1.68255,2.47503 3.61496,6.13062 4.29423,8.12354 0.67928,1.99292 1.22452,6.54996 1.21164,10.12675 -0.0151,4.2146 -0.78669,8.19143 -2.19226,11.30016 -1.19287,2.63829 -3.7007,6.38752 -5.57296,8.33163 -1.87225,1.9441 -5.08301,4.54577 -7.13501,5.78148 -2.052,1.2357 -3.85208,2.32457 -4.00017,2.41971 -0.14808,0.0951 0.63866,2.81186 1.74833,6.03716 1.10967,3.2253 2.81695,7.41001 3.79397,9.29936 0.97702,1.88935 3.51765,5.36254 5.64586,7.7182 2.1282,2.35567 6.29833,5.52997 9.26696,7.054 4.20572,2.15913 7.41199,2.8736 14.52076,3.23576 7.11009,0.3622 10.96184,-0.0397 17.45541,-1.82112 4.58269,-1.25725 12.22959,-4.14872 16.99313,-6.42551 4.76353,-2.27678 13.54102,-7.41844 19.50554,-11.42591 5.96451,-4.00747 15.67108,-11.28914 21.57017,-16.18149 l 10.72557,-8.89518 -8.45079,-9.22639 c -4.64793,-5.0745 -13.04229,-14.91455 -18.65411,-21.86677 -5.61182,-6.95222 -13.80251,-17.57916 -18.20152,-23.61544 l -7.99821,-10.97506 -6.64356,-0.69678 c -3.65396,-0.38343 -14.07873,-1.64526 -23.16616,-2.80429 -9.08743,-1.15902 -23.71793,-3.54664 -32.51222,-5.30584 -8.79429,-1.75919 -21.42761,-4.65351 -28.07403,-6.43183 -6.64644,-1.77831 -17.67928,-5.16089 -24.51742,-7.51684 -6.83815,-2.35595 -17.8118,-6.83855 -24.38591,-9.96133 -6.57411,-3.12277 -16.16788,-8.41459 -21.31949,-11.7596 -5.15161,-3.345 -13.05381,-9.85417 -17.56044,-14.46483 -5.72515,-5.85729 -9.35647,-10.73534 -12.05258,-16.19055 -2.12228,-4.29415 -4.40866,-11.01816 -5.08082,-14.94225 -0.90085,-5.25913 -0.91417,-8.93252 -0.0506,-13.97371 0.64431,-3.76146 2.76501,-10.07594 4.71267,-14.03218 2.29494,-4.66169 6.51016,-10.32971 11.97746,-16.10553 4.89796,-5.17435 12.49172,-11.62499 18.1055,-15.37998 5.31806,-3.5572 13.98956,-8.63744 19.26998,-11.28944 5.28043,-2.65198 14.89684,-6.88696 21.3698,-9.41105 6.47297,-2.5241 16.32607,-5.91934 21.89579,-7.54501 5.56972,-1.62566 10.23993,-3.0162 10.37824,-3.09008 0.13832,-0.0739 -0.9164,-5.37771 -2.34381,-11.78625 -1.42744,-6.40854 -3.31123,-16.68862 -4.18624,-22.84462 -0.87501,-6.156 -1.90884,-15.98962 -2.29742,-21.85247 -0.39664,-5.98444 -0.17847,-15.90821 0.49742,-22.62628 0.66218,-6.5816 2.4205,-16.17537 3.90742,-21.31949 1.4869,-5.14413 4.43937,-12.47093 6.56102,-16.28179 2.12165,-3.81086 6.39047,-9.40786 9.48626,-12.4378 3.0958,-3.02992 8.64561,-6.97786 12.33291,-8.77316 3.81891,-1.85939 10.0928,-3.7771 14.57791,-4.45596 4.33054,-0.65546 10.56649,-0.8707 13.85766,-0.47831 3.29118,0.3924 8.72791,1.40831 12.08164,2.25759 l 6.09768,1.54414 5.19294,-3.73076 c 2.8972,-2.08143 8.08737,-4.47227 11.74013,-5.40806 5.22302,-1.33807 7.76928,-1.45141 12.58958,-0.56032 3.32332,0.61435 8.09265,2.31853 10.59853,3.78707 2.50587,1.46854 6.01713,4.44251 7.80279,6.60883 1.78566,2.16633 3.97957,6.08975 4.87536,8.71874 0.89579,2.62899 1.62871,7.24737 1.62871,10.26307 0,3.01569 -0.75557,7.70051 -1.67902,10.41072 -0.92346,2.7102 -3.6225,7.13556 -5.99786,9.83411 -2.37537,2.69856 -6.77647,6.19364 -9.78021,7.76684 -4.60089,2.4097 -6.80498,2.86036 -13.98916,2.86036 -7.18984,0 -9.38706,-0.45 -14.00461,-2.86819 -3.01225,-1.57752 -7.18349,-4.86206 -9.26943,-7.29901 -2.08593,-2.43693 -4.53816,-6.61892 -5.44941,-9.29329 -0.91125,-2.67437 -1.65682,-7.13215 -1.65682,-9.90617 v -5.04366 l -7.6381,-1.28833 c -4.20729,-0.70965 -10.31205,-0.98121 -13.59117,-0.60457 -3.2742,0.37607 -8.42852,1.88614 -11.45408,3.35571 -3.02555,1.46958 -7.20603,4.55921 -9.28992,6.86584 -2.08391,2.30663 -5.03634,6.65554 -6.56097,9.66423 -1.52462,3.0087 -3.75725,9.14194 -4.9614,13.62945 -1.7483,6.5154 -2.19927,11.48764 -2.23854,24.68169 -0.0271,9.08743 0.54627,20.59995 1.27404,25.58338 0.72776,4.98343 2.19202,13.37798 3.25389,18.65456 1.06187,5.27657 2.45566,11.53085 3.09732,13.89839 l 1.16665,4.30464 14.14387,-2.82655 c 7.77912,-1.5546 21.09934,-3.83725 29.60049,-5.07254 8.50114,-1.23531 22.34884,-2.83449 30.77266,-3.55375 l 15.31603,-1.30774 9.67111,-12.80715 c 5.31911,-7.04393 14.48333,-18.58179 20.36494,-25.63967 5.8816,-7.05789 18.14212,-20.28228 27.2456,-29.38751 9.10347,-9.10523 20.62913,-19.81149 25.61256,-23.79167 4.98343,-3.98018 13.35242,-10.12373 18.59775,-13.65233 5.24533,-3.5286 13.16019,-8.23177 17.58858,-10.45149 4.42838,-2.21971 11.45971,-5.26016 15.62517,-6.75656 4.16546,-1.49639 11.49045,-3.32033 16.27777,-4.05318 6.81349,-1.04303 10.49401,-1.05837 16.94385,-0.0707 4.76927,0.73037 11.00468,2.61327 14.80464,4.47053 4.20021,2.05288 8.61592,5.42691 12.2587,9.36685 3.13154,3.387 7.26557,9.3909 9.18672,13.34202 1.92115,3.9511 4.54865,11.36482 5.83887,16.47491 2.02059,8.00269 2.33943,12.09961 2.29937,29.54459 -0.0367,15.98939 -0.54309,23.07947 -2.40512,33.6761 -1.29723,7.38243 -3.78967,19.08902 -5.53876,26.01466 -1.7491,6.92562 -3.05444,12.67443 -2.90077,12.77512 0.15366,0.10063 5.55595,1.99411 12.0051,4.20761 6.44914,2.21348 17.48569,6.79714 24.52566,10.18588 7.03996,3.38875 17.12382,9.05357 22.40858,12.58848 5.28476,3.53492 12.84423,9.58405 16.7988,13.4425 3.95458,3.85845 9.08505,9.94716 11.40106,13.53047 2.316,3.5833 5.27247,9.22333 6.56993,12.5334 1.82746,4.66216 2.36989,8.3002 2.40722,16.14505 0.0377,7.93739 -0.46569,11.50952 -2.32871,16.52261 -1.30729,3.51771 -4.50571,9.51382 -7.10759,13.32468 -2.60189,3.81085 -6.61181,8.76124 -8.91092,11.00084 -4.1135,4.00702 -4.16365,4.14974 -3.14174,8.94119 0.71009,3.32938 0.65969,6.75542 -0.15939,10.83391 -0.6949,3.46019 -2.77769,8.34409 -4.96028,11.6313 -2.11119,3.17969 -5.90592,7.02595 -8.64663,8.76407 -2.68634,1.70362 -7.34578,3.6085 -10.3543,4.23307 -3.79726,0.78831 -7.23593,0.80069 -11.24442,0.0405 -3.1759,-0.60229 -8.03458,-2.54546 -10.79706,-4.31814 -2.76249,-1.77267 -6.2548,-5.00722 -7.7607,-7.18788 -1.5059,-2.18065 -3.52207,-5.84954 -4.48034,-8.15309 -1.03785,-2.49478 -1.74235,-7.15388 -1.74235,-11.52266 0,-5.76697 0.60241,-8.56566 2.81885,-13.0959 1.55037,-3.16884 4.98863,-7.67144 7.6406,-10.00579 2.65196,-2.33436 7.24783,-5.0501 10.21304,-6.03499 3.76752,-1.25136 7.42137,-1.62774 12.13156,-1.24965 4.60618,0.36974 8.24528,1.42305 11.49371,3.32675 l 4.75346,2.78571 4.1199,-4.68045 c 2.26594,-2.57424 5.51453,-7.24285 7.21908,-10.37466 2.51349,-4.61813 3.1859,-7.3466 3.5581,-14.43792 0.42258,-8.0512 0.19732,-9.30276 -2.84429,-15.80253 -2.05287,-4.38685 -5.78001,-9.63814 -9.84642,-13.87287 -3.59875,-3.74773 -10.07873,-9.25818 -14.39997,-12.24545 -4.32124,-2.98726 -13.74004,-8.25529 -20.93068,-11.70672 -7.19064,-3.45144 -18.03712,-7.98465 -24.10329,-10.07382 -6.06618,-2.08914 -11.18427,-3.79846 -11.37356,-3.79846 -0.18928,0 -1.15808,2.51836 -2.15289,5.59636 -0.9948,3.078 -4.92411,13.51123 -8.7318,23.18495 -3.80769,9.67371 -10.70732,25.45739 -15.33252,35.07485 -4.62521,9.61744 -8.40946,17.89812 -8.40946,18.4015 0,0.50338 2.65137,7.2128 5.89196,14.9098 3.24057,7.69702 8.73285,22.29994 12.20506,32.45094 3.47221,10.15101 8.20463,26.03299 10.51648,35.29331 2.31186,9.26031 5.05862,22.59318 6.10392,29.62862 1.20537,8.11282 1.89184,18.83523 1.87675,29.31429 -0.0167,11.62877 -0.57082,19.02858 -1.87069,24.98331 -1.01579,4.65339 -3.01541,11.36903 -4.44358,14.92364 -1.42819,3.55462 -4.64098,9.18846 -7.13955,12.51967 -2.49857,3.3312 -6.44877,7.5935 -8.77822,9.47178 -2.32946,1.87827 -6.63382,4.52407 -9.56525,5.87953 -2.93143,1.35547 -8.44785,2.96573 -12.2587,3.57836 -3.81086,0.61262 -7.88821,1.05828 -9.06079,0.99035 -1.17257,-0.0679 -5.113,-0.55149 -8.75651,-1.07457 z m 29.87321,-12.4641 c 4.21163,-2.07339 8.57424,-5.25675 10.85391,-7.92003 2.09648,-2.44926 4.98246,-6.86624 6.4133,-9.8155 1.43083,-2.94926 3.45325,-8.48027 4.49426,-12.29113 1.55761,-5.70192 1.8868,-11.17585 1.85912,-30.91326 -0.0281,-20.06623 -0.4201,-26.10298 -2.39931,-36.95277 -1.30112,-7.13258 -4.27494,-20.56386 -6.6085,-29.84728 -2.33355,-9.28341 -6.4164,-23.35473 -9.07296,-31.26959 -2.65658,-7.91486 -6.61496,-19.06762 -8.79641,-24.78391 -2.18145,-5.71629 -4.21425,-10.38171 -4.51734,-10.36761 -0.30309,0.0141 -3.42787,5.41059 -6.94395,11.99221 -3.51608,6.58161 -10.10308,18.12142 -14.63777,25.64401 -4.5347,7.52259 -11.37177,18.16227 -15.19349,23.64374 -6.53732,9.37646 -6.8066,9.99366 -4.54976,10.42832 2.14616,0.41335 2.10316,0.4773 -0.40831,0.60718 -2.22132,0.11487 -4.14718,1.98956 -9.22844,8.98326 -3.53172,4.86096 -10.8177,14.33481 -16.19106,21.053 -5.37336,6.71819 -15.66747,18.69068 -22.87578,26.60554 -7.20832,7.91486 -13.21475,14.80101 -13.3476,15.30255 -0.13286,0.50153 4.00074,4.72539 9.18577,9.38635 5.18504,4.66095 14.08533,12.01578 19.77842,16.34405 5.6931,4.32827 14.46279,10.29818 19.48819,13.26646 5.0254,2.96828 12.11977,6.66901 15.76529,8.22385 3.6455,1.55484 9.74616,3.71098 13.55702,4.79142 4.9835,1.41289 9.65281,1.87901 16.63105,1.6602 8.44486,-0.26481 10.61485,-0.75353 16.74435,-3.77106 z M 523.35663,493.35458 c 1.026,-0.26812 2.70491,-0.26812 3.73091,0 1.026,0.26812 0.18654,0.4875 -1.86546,0.4875 -2.052,0 -2.89145,-0.21938 -1.86545,-0.4875 z m -40.59149,19.37978 c 6.84241,-8.19792 12.33462,-15.01145 12.20491,-15.14116 -0.12971,-0.12971 -7.6227,0.2745 -16.6511,0.89823 -9.02838,0.62374 -30.71022,0.96775 -48.18184,0.76446 -17.47162,-0.20329 -31.76644,-0.17193 -31.76628,0.0697 1.6e-4,0.24162 3.4418,5.0385 7.64807,10.65975 4.20627,5.62125 10.55905,13.81812 14.11727,18.21526 3.55823,4.39714 10.28608,12.26595 14.95078,17.48624 l 8.48129,9.49144 13.37809,-13.76929 c 7.35794,-7.57309 18.97641,-20.47667 25.81881,-28.6746 z m 0.79662,-16.14815 13.03909,-0.70111 12.03071,-16.08799 c 6.61688,-8.8484 13.96577,-18.96612 16.33086,-22.48384 2.36509,-3.51772 8.13832,-13.11149 12.82939,-21.31949 4.69107,-8.208 10.0865,-18.09184 11.98983,-21.9641 l 3.46062,-7.04045 -6.07556,-13.21307 c -3.34155,-7.26717 -10.20411,-20.88806 -15.25012,-30.26864 -5.04601,-9.38057 -12.83751,-23.05169 -17.31445,-30.38027 -4.47693,-7.32857 -8.80874,-14.36802 -9.62624,-15.64324 -0.81748,-1.2752 -2.95239,-2.58343 -4.74423,-2.90718 -1.79184,-0.32375 -10.69307,-1.33521 -19.7805,-2.24769 -10.09402,-1.01356 -26.67977,-1.65339 -42.62835,-1.64448 -14.35815,0.009 -29.55197,0.32688 -33.76403,0.70857 l -7.65829,0.69398 -13.82739,20.91327 c -7.60507,11.5023 -17.48697,27.30262 -21.95979,35.11182 -4.47283,7.8092 -10.27901,18.47268 -12.90263,23.69663 -2.62361,5.22395 -4.77022,9.95165 -4.77022,10.50601 0,0.55436 3.52759,8.59872 7.83907,17.87637 4.31149,9.27764 11.09032,22.38486 15.06407,29.12715 3.97376,6.74229 12.02139,19.58054 17.88361,28.52946 7.01225,10.70447 11.43147,16.44745 12.91775,16.78721 1.24254,0.28405 9.21464,0.92685 17.71578,1.42845 8.50115,0.5016 24.61533,0.98214 35.80928,1.06786 11.19396,0.0857 26.22024,-0.15963 33.39174,-0.54523 z M 437.7826,435.07849 c -3.24085,-0.69817 -8.16122,-2.59897 -10.93415,-4.22402 -2.77293,-1.62504 -5.84457,-4.17999 -6.82589,-5.67765 -1.2776,-1.94988 -1.48213,-3.20189 -0.72033,-4.40959 0.58512,-0.92761 1.75627,-2.12332 2.60255,-2.65714 1.08501,-0.68441 3.20824,0.15292 7.20087,2.83978 3.11421,2.0957 7.66631,4.35095 10.11579,5.01169 2.44948,0.66072 6.75095,0.93012 9.55882,0.59866 2.80787,-0.33147 7.58859,-1.94218 10.62382,-3.57935 3.18514,-1.71805 6.76444,-4.77963 8.465,-7.2406 1.62051,-2.34515 3.60408,-6.87843 4.4079,-10.07395 0.80383,-3.19554 2.03307,-6.00058 2.73163,-6.23343 0.69858,-0.23287 2.44877,-0.12756 3.88933,0.23399 2.26768,0.56915 2.6178,1.26268 2.60878,5.16746 -0.006,2.5758 -1.17823,7.02456 -2.73335,10.37294 -1.5484,3.33391 -5.02087,8.02454 -8.05021,10.87427 -3.08091,2.89825 -7.65935,5.87104 -10.85782,7.05001 -3.0418,1.12123 -7.929,2.30359 -10.86043,2.62746 -2.93143,0.32388 -7.98147,0.0176 -11.22231,-0.68053 z m -55.93407,-13.34012 c 5.27657,-2.23642 12.10351,-5.34405 15.17095,-6.90585 3.06746,-1.56181 6.29992,-3.94266 7.18325,-5.29079 0.88333,-1.34813 2.28986,-6.36803 3.1256,-11.15532 0.83576,-4.7873 2.71697,-11.31968 4.18047,-14.51641 1.46352,-3.19673 4.72334,-8.04967 7.24404,-10.78431 2.52071,-2.73464 6.8272,-6.10925 9.56998,-7.49913 2.7428,-1.38987 7.9593,-3.00574 11.59224,-3.59081 4.32334,-0.69626 8.49475,-0.70544 12.07425,-0.0266 3.00789,0.57043 7.48842,2.0148 9.95672,3.20968 2.46831,1.19489 8.19513,5.48301 12.72626,9.52917 4.53112,4.04615 9.5773,7.65071 11.21371,8.01013 1.87329,0.41144 8.37965,-0.76827 17.56655,-3.1851 8.02519,-2.11122 14.78692,-3.64292 15.02606,-3.40378 0.23914,0.23915 -5.70084,2.96315 -13.19996,6.05334 -7.49912,3.09019 -20.59024,8.21338 -29.09139,11.38486 -8.50115,3.1715 -25.0504,8.81539 -36.77612,12.54198 -11.72572,3.72659 -31.18618,9.69656 -43.24548,13.26661 -12.05929,3.57004 -22.3726,6.47694 -22.91845,6.45977 -0.54584,-0.0172 3.32474,-1.86102 8.60132,-4.09744 z m 40.15336,-20.5595 c -0.22594,-3.75422 0.27476,-7.38289 1.3865,-10.04812 0.95708,-2.29448 3.27483,-5.78935 5.15054,-7.76637 1.87572,-1.97702 5.32915,-4.48486 7.67429,-5.57296 2.34514,-1.0881 6.68808,-1.98891 9.65097,-2.00178 3.71299,-0.0161 7.13064,0.84545 10.99781,2.77254 3.776,1.88166 6.53145,4.23459 8.42626,7.19533 1.54854,2.41966 2.93305,4.5769 3.07671,4.79389 0.14365,0.21698 1.48275,0.0879 2.97576,-0.28681 1.49302,-0.37472 2.71458,-1.17241 2.71458,-1.77264 0,-0.60024 -2.20637,-3.45014 -4.90305,-6.33311 -2.69669,-2.88297 -7.3479,-6.46008 -10.33605,-7.94913 -4.04005,-2.01324 -7.10714,-2.70738 -11.96266,-2.70738 -3.5913,0 -8.72082,0.74661 -11.39892,1.65914 -2.67811,0.91251 -6.64884,3.43088 -8.82387,5.59636 -2.17502,2.16548 -5.18092,6.33567 -6.67979,9.2671 -1.90912,3.73379 -2.87588,7.62753 -3.22836,13.00254 l -0.50314,7.67266 3.06804,-0.82247 c 2.97042,-0.7963 3.05679,-1.00944 2.71438,-6.69879 z m 24.51408,-1.96121 c 10.13033,-3.51771 18.56447,-6.39584 18.74254,-6.39584 0.17807,0 -0.39086,-1.38193 -1.26429,-3.07095 -0.87343,-1.68902 -3.06597,-4.31453 -4.8723,-5.83446 -1.80634,-1.51994 -5.13365,-3.31761 -7.39402,-3.99483 -2.38253,-0.71382 -6.13338,-0.92786 -8.92475,-0.50926 -2.65979,0.39885 -6.6996,2.08725 -9.02541,3.77207 -2.31574,1.6775 -5.23346,5.16331 -6.48384,7.74624 -1.25037,2.58294 -2.27341,6.18448 -2.27341,8.00342 0,1.81895 0.29116,4.06594 0.64703,4.99331 0.35587,0.92739 1.04813,1.68615 1.53835,1.68615 0.49023,0 9.17977,-2.87813 19.3101,-6.39585 z m -10.30275,20.28858 c -2.34514,-1.12754 -5.10335,-2.72886 -6.12935,-3.55852 -1.026,-0.82965 -1.86546,-2.05519 -1.86546,-2.72341 0,-0.66822 0.69122,-1.21495 1.53605,-1.21495 0.84483,0 1.86339,0.52964 2.26346,1.17697 0.40008,0.64734 2.7069,2.07586 5.12629,3.17451 2.41939,1.09865 6.07779,1.99755 8.12979,1.99755 2.052,0 5.66952,-0.88059 8.03891,-1.95686 2.36939,-1.07627 5.59468,-3.48599 7.16729,-5.35493 1.57261,-1.86894 3.37009,-5.29502 3.99439,-7.61351 0.62431,-2.31848 1.56799,-4.21543 2.09708,-4.21543 0.52909,0 1.25234,0.46982 1.60723,1.04405 0.35489,0.57423 0.0332,3.0926 -0.71507,5.59637 -0.79021,2.64438 -3.15641,6.34839 -5.64573,8.8377 -2.41785,2.41785 -6.19746,4.85671 -8.67296,5.59637 -2.41317,0.72104 -6.25068,1.30045 -8.5278,1.28757 -2.27712,-0.0129 -6.05898,-0.94595 -8.40412,-2.07348 z m 83.67899,-44.273 c 0,-0.29314 0.23985,-0.53299 0.53299,-0.53299 0.29314,0 0.53299,0.23985 0.53299,0.53299 0,0.29314 -0.23985,0.53299 -0.53299,0.53299 -0.29314,0 -0.53299,-0.23985 -0.53299,-0.53299 z m -149.60594,104.199 c -4.85407,-7.47515 -11.87697,-18.6279 -15.60643,-24.78391 -3.72947,-6.156 -9.73363,-16.83075 -13.3426,-23.72168 -3.60896,-6.89092 -6.96014,-12.16749 -7.44705,-11.72572 -0.48692,0.44179 -0.57406,0.25833 -0.19365,-0.40766 0.38042,-0.66599 -2.22593,-7.38163 -5.79188,-14.92364 -3.56597,-7.54201 -9.15074,-20.18854 -12.41064,-28.1034 -3.25989,-7.91486 -8.50584,-21.82583 -11.65765,-30.91326 l -5.73058,-16.5226 -3.26259,0.28364 c -1.79441,0.15601 -9.76376,2.45567 -17.70964,5.11036 -7.94588,2.65469 -19.53488,7.09844 -25.75334,9.87498 -6.21846,2.77655 -15.21005,7.372 -19.98132,10.21213 -4.77127,2.84012 -12.1756,8.10236 -16.45407,11.69385 -4.27847,3.59149 -9.84081,9.54747 -12.36074,13.23551 -2.51993,3.68803 -5.36603,9.40353 -6.32466,12.70111 -1.20649,4.15015 -1.59361,8.48427 -1.25773,14.08097 0.35793,5.96401 1.2292,9.54239 3.32076,13.63855 1.55954,3.05424 5.78584,8.70705 9.39178,12.56182 3.60595,3.85476 10.90032,9.91436 16.20974,13.46577 5.30942,3.5514 13.86402,8.57176 19.01024,11.15635 5.14622,2.58458 14.0431,6.56056 19.77084,8.83549 5.72774,2.27492 15.93047,5.91411 22.67273,8.08706 6.74225,2.17297 19.93369,5.82275 29.31429,8.11064 9.38061,2.28789 25.69004,5.58758 36.24319,7.33265 10.55314,1.74506 20.6266,3.35732 22.38546,3.58278 1.75886,0.22548 3.7814,0.48182 4.49452,0.56967 0.71314,0.0878 -2.6749,-5.95632 -7.52898,-13.43146 z m -40.1375,-53.03223 c 0,-0.29314 0.23984,-0.53298 0.53298,-0.53298 0.29315,0 0.53299,0.23984 0.53299,0.53298 0,0.29315 -0.23984,0.53299 -0.53299,0.53299 -0.29314,0 -0.53298,-0.23984 -0.53298,-0.53299 z m 1.09862,-2.13195 c 0,-0.58628 0.46499,-1.7855 1.03333,-2.66493 0.56833,-0.87943 1.03332,-1.11928 1.03332,-0.53299 0,0.58629 -0.46499,1.78551 -1.03332,2.66494 -0.56834,0.87943 -1.03333,1.11927 -1.03333,0.53298 z m 229.70698,-32.24572 c 2.72505,-5.71629 7.72527,-16.86905 11.11159,-24.78391 3.38631,-7.91486 7.88663,-19.28919 10.00069,-25.2763 2.11407,-5.9871 3.50024,-11.09232 3.08039,-11.34494 -0.41986,-0.25262 -8.29352,-2.20412 -17.49702,-4.33667 -9.20351,-2.13255 -25.03323,-5.24803 -35.17716,-6.92329 -10.14393,-1.67527 -20.24234,-3.30954 -22.44091,-3.63172 -2.19857,-0.32218 -3.99741,-0.42404 -3.99741,-0.22634 0,0.19769 3.77655,6.28357 8.39231,13.52415 4.61578,7.24059 12.17087,19.65856 16.7891,27.59546 4.61824,7.93691 11.99445,21.48038 16.3916,30.09657 4.39714,8.6162 8.08421,15.67357 8.19348,15.68303 0.10927,0.01 2.42828,-4.65975 5.15334,-10.37604 z m -210.3454,-9.06493 c 4.51083,-8.93858 12.12085,-22.9676 16.91115,-31.17561 4.79031,-8.208 12.27773,-20.37474 16.63871,-27.0372 4.36099,-6.66246 7.78381,-12.23201 7.60626,-12.37679 -0.17753,-0.14477 -6.3189,0.33465 -13.64747,1.06539 -7.32858,0.73074 -18.88453,2.13628 -25.67989,3.12343 -6.79538,0.98713 -17.95082,2.8835 -24.78989,4.21414 -6.83908,1.33064 -12.74957,2.73425 -13.13446,3.11912 -0.38487,0.38488 1.9478,8.73676 5.1837,18.55975 3.23591,9.82297 9.36502,26.61427 13.62025,37.31399 4.25522,10.69972 8.04128,19.45217 8.41346,19.44989 0.37218,-0.002 4.36736,-7.31753 8.87818,-16.25611 z M 593.46659,306.2114 c 1.3132,-4.83686 3.50676,-14.27473 4.87457,-20.97305 1.36781,-6.69833 3.04623,-16.98976 3.72983,-22.86987 0.73293,-6.30439 0.99806,-17.05314 0.64617,-26.19632 -0.36067,-9.37129 -1.29781,-18.03543 -2.3689,-21.90105 -0.97468,-3.51772 -2.93302,-8.85376 -4.35185,-11.85789 -1.41883,-3.00412 -4.45818,-7.59612 -6.75412,-10.20444 -2.29593,-2.60831 -7.19434,-6.35199 -10.88535,-8.31928 -5.46381,-2.91218 -8.21463,-3.66393 -14.80267,-4.04531 -5.95681,-0.34483 -10.42987,0.12285 -16.95359,1.77256 -4.87401,1.23253 -13.71679,4.57759 -19.65061,7.43347 -5.93382,2.85587 -15.8255,8.5512 -21.9815,12.6563 -6.156,4.10509 -14.31071,9.96577 -18.12157,13.02373 -3.81085,3.05796 -12.71355,10.7861 -19.78378,17.17363 -7.07022,6.38753 -18.66064,17.98483 -25.75648,25.77176 -7.09584,7.78695 -16.69125,18.75478 -21.32312,24.37295 -4.63188,5.61819 -9.41803,11.6143 -10.63589,13.32468 l -2.2143,3.10981 h 42.46976 42.46976 l -1.70985,-2.66493 c -0.94042,-1.46572 -3.19556,-4.56554 -5.01142,-6.88849 -1.81586,-2.32295 -2.73394,-3.8734 -2.04019,-3.44544 0.69375,0.42796 3.49883,3.82538 6.23352,7.54982 l 4.97214,6.77173 9.22312,0.73586 c 5.0727,0.40473 16.41843,1.68255 25.21272,2.83961 8.79429,1.15706 24.14432,3.75628 34.11118,5.77604 9.96686,2.01977 19.56063,4.1207 21.31949,4.66874 1.75886,0.54802 3.98483,1.03765 4.9466,1.08805 1.30864,0.0685 2.34953,-2.12144 4.13633,-8.70267 z M 480.88236,282.86175 c -0.47125,-0.76249 -0.29242,-0.94132 0.47007,-0.47007 0.67687,0.41833 1.23068,0.97213 1.23068,1.23068 0,0.25854 -0.21154,0.47007 -0.47008,0.47007 -0.25854,0 -0.81234,-0.55381 -1.23067,-1.23068 z m -3.62913,-4.63218 c 0,-0.29314 0.23985,-0.53299 0.53299,-0.53299 0.29314,0 0.53299,0.23985 0.53299,0.53299 0,0.29314 -0.23985,0.53299 -0.53299,0.53299 -0.29314,0 -0.53299,-0.23985 -0.53299,-0.53299 z"
       id="path1" />
  </g>
</svg>
